<svg width="40" height="40" viewBox="0 0 29 41" fill="none" xmlns="http://www.w3.org/2000/svg">
	<g clip-path="url(#clip0_103_5767)">
		<path fill="#EFEFEF" d="M15.2186 18.94C13.7393 19.5705 12.0605 20.2853 9.88472 20.2853C8.97454 20.2835 8.06874 20.1592 7.19202 19.9157L8.69684 35.2965C8.7501 35.9393 9.04429 36.5387 9.52095 36.9757C9.99761 37.4126 10.6219 37.6549 11.2699 37.6549C11.2699 37.6549 13.4035 37.7652 14.1155 37.7652C14.8818 37.7652 17.1794 37.6549 17.1794 37.6549C17.8273 37.6549 18.4514 37.4123 18.928 36.9753C19.4046 36.5384 19.6987 35.9393 19.7519 35.2965L21.3637 18.3002C20.6434 18.0553 19.9165 17.8926 19.097 17.8926C17.6798 17.892 16.5378 18.378 15.2186 18.94Z" />
		<path fill="#242424" d="M28.3225 10.9584L28.0959 9.82051C27.8926 8.79955 27.431 7.83485 26.3783 7.46585C26.0409 7.34778 25.658 7.29707 25.3993 7.0527C25.1406 6.80837 25.0641 6.42889 25.0043 6.07698C24.8934 5.43107 24.7893 4.78463 24.6757 4.13985C24.5776 3.5855 24.5001 2.96278 24.2447 2.45423C23.9122 1.77138 23.2224 1.37204 22.5365 1.10783C22.185 0.977217 21.8263 0.866722 21.4622 0.776891C19.7485 0.326804 17.9467 0.161332 16.1837 0.0670127C14.0676 -0.0492311 11.9458 -0.0142084 9.83474 0.171811C8.26345 0.314118 6.60848 0.486211 5.11531 1.0273C4.56957 1.22532 4.00719 1.46305 3.59222 1.8828C3.08303 2.39852 2.91682 3.1961 3.28857 3.83922C3.55287 4.29593 4.00056 4.61861 4.47539 4.83207C5.09386 5.10711 5.73977 5.31641 6.40239 5.45646C8.24739 5.86242 10.1583 6.02181 12.0432 6.08967C14.1324 6.17359 16.2249 6.10557 18.3041 5.88611C18.8182 5.82985 19.3315 5.76237 19.8438 5.68371C20.4472 5.59158 20.8344 4.80614 20.6566 4.25897C20.4438 3.60483 19.872 3.3511 19.2255 3.44983C19.1302 3.46471 19.0354 3.47849 18.9401 3.49228L18.8714 3.50221C18.6524 3.52981 18.4333 3.55552 18.2143 3.57944C17.7618 3.62797 17.3083 3.66769 16.8535 3.69859C15.8352 3.76918 14.8141 3.80172 13.7935 3.80338C12.7907 3.80338 11.7873 3.77524 10.7866 3.70962C10.3301 3.67984 9.87464 3.64195 9.42032 3.59598C9.21366 3.57447 9.00754 3.55187 8.80146 3.52648L8.6053 3.50167L8.56266 3.49561L8.35931 3.46638C7.94377 3.40403 7.52822 3.33235 7.11712 3.24573C7.07564 3.23656 7.03851 3.21361 7.01192 3.1806C6.98532 3.14761 6.97083 3.10657 6.97083 3.06427C6.97083 3.02197 6.98532 2.98093 7.01192 2.94793C7.03851 2.91494 7.07564 2.89196 7.11712 2.8828H7.12488C7.48114 2.80724 7.84015 2.7427 8.20028 2.68644C8.32035 2.66769 8.44075 2.6493 8.56153 2.63128H8.56485C8.79035 2.61639 9.01698 2.57612 9.24135 2.54965C11.1937 2.34749 13.1576 2.27856 15.1194 2.34336C16.0718 2.37094 17.0236 2.42665 17.9716 2.52262C18.1755 2.54358 18.3783 2.56565 18.5811 2.59047C18.6586 2.59985 18.7368 2.61087 18.8149 2.62025L18.9722 2.64286C19.431 2.71089 19.8874 2.79345 20.3413 2.89053C21.014 3.03614 21.8777 3.08357 22.1769 3.81717C22.2722 4.04993 22.3154 4.30862 22.368 4.55296L22.4351 4.86461C22.4369 4.87018 22.4381 4.87592 22.439 4.88169C22.5974 5.61713 22.7561 6.35256 22.9149 7.088C22.9266 7.14233 22.9268 7.19846 22.9157 7.2529C22.9046 7.30736 22.8824 7.35891 22.8503 7.40443C22.8183 7.44991 22.7772 7.48835 22.7296 7.51733C22.682 7.54631 22.6289 7.56519 22.5736 7.57285H22.5692L22.4722 7.58609L22.3764 7.59875C22.0727 7.63812 21.7688 7.67488 21.4644 7.70909C20.8649 7.77711 20.2645 7.83594 19.6632 7.88559C18.4682 7.98448 17.2709 8.0494 16.0712 8.0803C15.4599 8.09646 14.8488 8.10402 14.2378 8.1029C11.8061 8.10101 9.37643 7.96028 6.96088 7.68149C6.69935 7.65062 6.43785 7.6175 6.17631 7.58388C6.37911 7.60981 6.02893 7.564 5.95803 7.5541C5.79181 7.53092 5.62559 7.50685 5.45937 7.48184C4.90143 7.39853 4.34684 7.29595 3.79 7.20603C3.11683 7.09572 2.47301 7.15089 1.86411 7.48184C1.36429 7.75413 0.959752 8.17166 0.70447 8.67876C0.441846 9.21929 0.363724 9.80781 0.246265 10.3886C0.128805 10.9694 -0.0540341 11.5944 0.0152228 12.1906C0.164264 13.4775 1.06793 14.5232 2.36774 14.7571C3.59055 14.9777 4.82 15.1564 6.05276 15.3087C10.8954 15.8991 15.7877 15.9697 20.6455 15.5194C21.0411 15.4826 21.4361 15.4425 21.8306 15.3991C21.9539 15.3857 22.0785 15.3998 22.1955 15.4405C22.3126 15.4812 22.419 15.5475 22.5069 15.6344C22.5949 15.7213 22.6622 15.8268 22.7039 15.9429C22.7457 16.0591 22.7608 16.1832 22.7481 16.3059L22.6251 17.4962C22.3773 19.9014 22.1294 22.3065 21.8816 24.7114C21.6231 27.2369 21.3628 29.7621 21.1009 32.2871C21.0271 32.9984 20.9532 33.7094 20.8793 34.4201C20.8084 35.1202 20.7984 35.8421 20.6649 36.5339C20.4543 37.6216 19.7147 38.2896 18.6354 38.5339C17.6466 38.758 16.6365 38.8756 15.6224 38.8846C14.4982 38.8907 13.3746 38.841 12.2505 38.8471C11.0503 38.8538 9.58046 38.7436 8.65408 37.8543C7.84015 37.0734 7.72767 35.8505 7.61687 34.7929C7.46913 33.393 7.32268 31.9934 7.17749 30.5939L6.36304 22.8117L5.83615 17.7764C5.82726 17.6931 5.81841 17.611 5.8101 17.5271C5.74692 16.9265 5.31975 16.3385 4.64656 16.3688C4.07037 16.3942 3.41548 16.8818 3.48306 17.5271L3.87366 21.2602L4.68147 28.9822C4.91161 31.1756 5.14116 33.3693 5.37017 35.5636C5.41451 35.9838 5.45605 36.4054 5.50258 36.8256C5.75581 39.1225 7.51769 40.3602 9.69956 40.7086C10.9739 40.9128 12.2792 40.9548 13.5724 40.9756C15.2302 41.0022 16.9045 41.0657 18.5351 40.7666C20.9514 40.3252 22.7642 38.7192 23.0229 36.2278C23.0968 35.5084 23.1707 34.7891 23.2446 34.0694C23.4902 31.6895 23.7355 29.3095 23.9804 26.9292L24.7815 19.1521L25.1489 15.5878C25.1672 15.411 25.2421 15.2449 25.3627 15.1138C25.4832 14.9828 25.6429 14.8939 25.8182 14.8602C26.5091 14.7262 27.1695 14.4973 27.661 13.9738C28.4433 13.1405 28.599 12.0538 28.3225 10.9584ZM2.33229 11.7273C2.34281 11.7223 2.32342 11.8122 2.31511 11.8542C2.31345 11.7907 2.31677 11.7345 2.33229 11.7273ZM2.39933 12.2436C2.40487 12.2397 2.42149 12.2618 2.43866 12.2883C2.41262 12.264 2.396 12.2458 2.39877 12.2436H2.39933ZM2.46526 12.3302C2.48909 12.3704 2.50183 12.3958 2.46526 12.3302V12.3302ZM2.59768 12.4372H2.601C2.601 12.441 2.6071 12.4449 2.60931 12.4488C2.60564 12.4445 2.60156 12.4406 2.59713 12.4372H2.59768ZM25.786 12.2772C25.5378 12.5122 25.1638 12.6214 24.7943 12.676C20.6499 13.2883 16.4452 13.5982 12.2554 13.4615C9.25687 13.3594 6.28992 13.0279 3.32129 12.6104C3.0304 12.5696 2.71514 12.5166 2.51512 12.3031C2.13836 11.9005 2.32342 11.0897 2.42149 10.6032C2.51125 10.1575 2.683 9.56348 3.21545 9.50004C4.04654 9.40298 5.01169 9.7521 5.83393 9.87622C6.82383 10.0266 7.81744 10.147 8.81473 10.2375C13.071 10.6236 17.3987 10.5635 21.6362 9.99868C22.4085 9.89533 23.1781 9.77528 23.9449 9.63849C24.6281 9.51658 25.3855 9.2877 25.7982 9.99204C26.0813 10.4719 26.119 11.1139 26.0753 11.6561C26.0618 11.8924 25.9581 12.1146 25.7855 12.2772H25.786Z" />
	</g>
</svg>
